<?xml version="1.0" standalone="no"?>
<!DOCTYPE svg PUBLIC "-//W3C//DTD SVG 20010904//EN"
 "http://www.w3.org/TR/2001/REC-SVG-20010904/DTD/svg10.dtd">
<svg version="1.0" xmlns="http://www.w3.org/2000/svg"
 width="160.000000pt" height="160.000000pt" viewBox="0 0 160.000000 160.000000"
 preserveAspectRatio="xMidYMid meet">
<metadata>
Created by potrace 1.11, written by Peter Selinger 2001-2013
</metadata>
<g transform="translate(0.000000,160.000000) scale(0.100000,-0.100000)"
fill="#000000" stroke="none">
<path d="M1296 1545 c-6 -18 -16 -20 -109 -20 -95 0 -107 -2 -168 -32 -61 -31
-175 -134 -207 -188 l-12 -20 -12 20 c-32 54 -146 157 -207 188 -61 30 -73 32
-166 32 -86 0 -106 -4 -145 -24 -142 -75 -220 -203 -220 -360 0 -107 25 -196
89 -326 33 -66 59 -121 57 -122 -2 -2 -39 -11 -82 -20 -43 -9 -83 -20 -88 -24
-5 -4 11 -13 35 -19 163 -44 306 -191 334 -343 10 -52 27 -42 45 25 8 31 17
59 20 62 3 2 79 -73 170 -169 91 -95 167 -173 170 -173 7 0 343 355 427 451
152 174 244 321 293 466 21 64 43 271 30 281 -4 3 -13 23 -20 45 -28 87 -104
176 -187 219 -21 11 -33 25 -36 43 -4 25 -5 26 -11 8z m-782 -116 c14 -6 -7
-8 -64 -4 -110 6 -110 6 -75 15 33 9 106 3 139 -11z m710 15 c10 -4 16 -18 16
-38 0 -19 -3 -26 -8 -19 -5 8 -44 15 -96 19 -67 6 -84 9 -70 17 39 22 126 33
158 21z m102 -87 c4 -23 8 -50 9 -59 1 -10 4 -20 8 -24 7 -8 -17 -34 -32 -34
-5 0 -13 -5 -16 -10 -4 -6 -3 -10 2 -9 19 3 27 -2 15 -9 -7 -5 -41 -3 -75 5
-34 7 -73 13 -87 13 -23 1 -22 2 10 16 62 27 130 111 130 160 0 33 28 -6 36
-49z m-909 -547 c15 0 15 -2 1 -17 -9 -10 -14 -26 -13 -35 2 -13 -3 -18 -20
-18 -14 0 -32 -9 -43 -20 -22 -24 -73 -45 -127 -54 l-40 -6 52 24 c59 28 133
99 154 148 l14 33 3 -27 c2 -18 9 -28 19 -28z m158 -95 l20 -16 -20 10 c-11 5
-29 17 -40 26 l-20 16 20 -10 c11 -5 29 -17 40 -26z"/>
</g>
</svg>
