<svg width="11" height="11" viewBox="0 0 11 11" fill="none" xmlns="http://www.w3.org/2000/svg">
<path d="M4.08253 1.21475C4.62584 -0.0174433 6.37416 -0.0174433 6.91747 1.21475V1.21475C7.18989 1.83259 7.83112 2.20281 8.5024 2.12981V2.12981C9.84116 1.98423 10.7153 3.49833 9.91987 4.58494V4.58494C9.52102 5.12978 9.52102 5.87022 9.91987 6.41506V6.41506C10.7153 7.50167 9.84116 9.01577 8.5024 8.87019V8.87019C7.83112 8.79719 7.18989 9.16741 6.91747 9.78525V9.78525C6.37416 11.0174 4.62584 11.0174 4.08253 9.78525V9.78525C3.81011 9.16741 3.16888 8.79719 2.4976 8.87019V8.87019C1.15884 9.01577 0.284673 7.50167 1.08013 6.41506V6.41506C1.47898 5.87022 1.47898 5.12978 1.08013 4.58494V4.58494C0.284673 3.49833 1.15884 1.98423 2.4976 2.12981V2.12981C3.16888 2.20281 3.81011 1.83259 4.08253 1.21475V1.21475Z" fill="#FFFDE9"/>
</svg>
